:SAMPLES-PER-SECOND 30
:FULLY-SPECIFIED
:DEGREES
17
root  3.01898 40.752 -2.93922 -177.314 -82.0403 173.713
RightUpLeg  -0.037414 -8.73145 -6.94105
RightLeg  9.01285 3.57729 2.63688
RightFoot  -4.43132 -0.09818 1.12825
RightToes  0.00048216 0.542163 -0.142577
Spine  5.47993 -1.04048 -0.422671
Spine1  0.609766 -0.886524 -0.647447
HEad  4.42536 -2.48998 -0.424529
LeftShoulder1  0.969765 -2.83691 -7.6873
LeftArm  -22.5493 14.2007 -8.15082
LeftForeArm  3.17024 -2.39042 0.507069
LeftHand  -0.25398 0.0180481 5.50724
RightShoulder  0.504398 0.0320288 6.61415
RightArm  -27.8536 0.934771 5.10796
RightForeArm  -4.40274 5.05 2.10076
RightHand  -2.27542 7.12405 -21.2892
LeftUpLeg  1.7358 4.07227 0.510288
LeftLeg  7.92426 8.8992 -0.814773
LeftFoot  -9.19572 0.0749854 -1.05304
LeftToes  1.06243e-005 4.65856e-005 -8.18503e-006
18
root  2.92439 40.6801 -2.86246 -178.326 -80.9534 174.061
RightUpLeg  -0.266726 -8.4866 -6.80648
RightLeg  10.7357 4.58473 2.02752
RightFoot  -5.3244 -0.128025 1.75097
RightToes  0.00048216 0.542163 -0.142577
Spine  5.72607 -0.909414 -0.133994
Spine1  1.28566 -0.683976 -1.09799
HEad  6.14234 -2.69454 -0.655419
LeftShoulder1  1.12407 -3.19994 -9.3374
LeftArm  -22.6543 14.8227 -8.06309
LeftForeArm  2.0416 -3.12223 0.464764
LeftHand  -0.25398 0.0180481 5.50724
RightShoulder  0.629756 0.585258 7.90007
RightArm  -29.0566 -0.286488 6.53165
RightForeArm  -5.04407 8.47782 2.44757
RightHand  -2.34693 7.19923 -21.8063
LeftUpLeg  2.32638 4.63993 0.493343
LeftLeg  8.79572 9.3944 -0.679425
LeftFoot  -9.99746 0.0746574 -1.24284
LeftToes  1.06243e-005 4.65856e-005 -8.18503e-006
19
root  2.84369 40.5735 -2.79378 -179.265 -79.5981 174.163
RightUpLeg  -0.849304 -7.38106 -6.60218
RightLeg  13.2945 5.10769 1.42556
RightFoot  -6.33481 -0.150071 2.45182
RightToes  0.00048216 0.542163 -0.142577
Spine  6.36692 -0.62042 0.0329818
Spine1  1.90379 -0.335341 -1.53171
HEad  7.85456 -2.96381 -0.978297
LeftShoulder1  1.27313 -3.52829 -10.8268
LeftArm  -22.9851 15.1571 -8.92452
LeftForeArm  0.727014 -3.5181 0.471773
LeftHand  -0.25398 0.0180481 5.50724
RightShoulder  0.768319 1.0301 9.62733
RightArm  -29.6774 -1.73832 8.05089
RightForeArm  -5.02697 12.4897 3.09556
RightHand  -2.35986 6.98702 -22.2752
LeftUpLeg  3.00199 5.56882 0.634623
LeftLeg  9.91563 9.84883 -0.67503
LeftFoot  -10.8165 0.0714421 -1.41724
LeftToes  1.06243e-005 4.65856e-005 -8.18503e-006
20
root  2.77557 40.4412 -2.72577 -179.701 -77.9043 173.821
RightUpLeg  -2.37151 -5.42047 -6.65568
RightLeg  17.2031 4.78667 1.38624
RightFoot  -6.85044 -0.176582 3.32943
RightToes  0.00048216 0.542163 -0.142577
Spine  7.11196 -0.256182 0.028966
Spine1  2.53359 0.069789 -1.98264
HEad  9.2819 -2.94009 -1.32675
LeftShoulder1  1.40706 -3.77389 -12.185
LeftArm  -23.4984 15.29 -10.6682
LeftForeArm  -0.331675 -3.48167 0.56882
LeftHand  -0.25398 0.0180481 5.50724
RightShoulder  0.961028 1.55396 11.8987
RightArm  -29.454 -3.05375 9.43033
RightForeArm  -3.80112 16.4903 3.8545
RightHand  -2.39291 7.01049 -22.5335
LeftUpLeg  3.58784 6.68053 0.794449
LeftLeg  11.1513 10.4065 -0.76461
LeftFoot  -11.8304 0.0632349 -1.74868
LeftToes  1.06243e-005 4.65856e-005 -8.18503e-006
21
root  2.7069 40.2968 -2.66315 -179.417 -75.9777 173.061
RightUpLeg  -5.47802 -4.38292 -7.11812
RightLeg  23.0862 4.66533 1.97499
RightFoot  -5.9515 -0.276411 4.94581
RightToes  0.00048216 0.542163 -0.142577
Spine  7.70305 0.00469889 -0.325507
Spine1  3.08451 0.29614 -2.24774
HEad  10.2847 -2.22471 -1.77959
LeftShoulder1  1.56094 -3.98528 -13.8443
LeftArm  -23.6869 15.6122 -12.6902
LeftForeArm  -0.840208 -3.46 0.552599
LeftHand  -0.25398 0.0180481 5.50724
RightShoulder  1.23997 2.28593 14.5682
RightArm  -28.315 -3.74104 10.7468
RightForeArm  -1.39732 19.6528 4.37742
RightHand  -2.45402 7.30441 -22.5773
LeftUpLeg  3.84345 7.69102 0.790522
LeftLeg  12.4319 11.1508 -0.834091
LeftFoot  -13.0441 0.0426735 -2.37487
LeftToes  1.06243e-005 4.65856e-005 -8.18503e-006
22
root  2.61435 40.1603 -2.61984 -178.835 -74.0017 172.181
RightUpLeg  -9.61497 -4.65489 -7.76769
RightLeg  29.9885 4.8645 2.79926
RightFoot  -3.23536 -0.562995 7.55076
RightToes  0.00048216 0.542163 -0.142577
Spine  8.29265 0.0760374 -1.03765
Spine1  3.51024 0.232739 -2.14953
HEad  10.8058 -0.80666 -2.42579
LeftShoulder1  1.75336 -4.17509 -16.0204
LeftArm  -23.4607 16.1838 -14.7858
LeftForeArm  -0.51921 -3.83018 0.322652
LeftHand  -0.25398 0.0180481 5.50724
RightShoulder  1.55897 3.05592 17.1483
RightArm  -26.315 -3.75282 12.5042
RightForeArm  0.94655 21.5087 4.60861
RightHand  -2.47865 7.42625 -22.5888
LeftUpLeg  3.99321 8.44023 0.598235
LeftLeg  13.5781 12.1865 -0.799807
LeftFoot  -14.2204 0.0078929 -3.08172
LeftToes  1.06243e-005 4.65856e-005 -8.18503e-006
23
root  2.47502 40.0304 -2.61289 -178.239 -72.2282 171.245
RightUpLeg  -13.5891 -5.43944 -8.39969
RightLeg  35.898 4.84599 3.50668
RightFoot  -0.0198253 -1.00834 10.171
RightToes  0.00048216 0.542163 -0.142577
Spine  9.00844 -0.00972015 -1.93314
Spine1  3.96824 -0.0393244 -1.90276
HEad  10.9195 0.848644 -3.11662
LeftShoulder1  2.00506 -4.43361 -18.6431
LeftArm  -23.1344 16.4077 -17.0541
LeftForeArm  0.593217 -4.21337 0.0128368
LeftHand  -0.25398 0.0180481 5.50724
RightShoulder  1.86382 3.72704 19.3229
RightArm  -23.4305 -3.77957 15.0033
RightForeArm  2.03799 22.2719 4.69755
RightHand  -2.43401 7.21272 -22.5552
LeftUpLeg  4.27475 8.92405 0.290147
LeftLeg  14.6235 13.434 -0.631587
LeftFoot  -15.3124 -0.0317483 -3.56819
LeftToes  1.06243e-005 4.65856e-005 -8.18503e-006
24
root  2.27579 39.9423 -2.64297 -177.982 -70.9468 170.771
RightUpLeg  -16.6229 -6.76999 -8.69666
RightLeg  38.7823 4.69444 3.76777
RightFoot  1.91131 -1.30369 11.3244
RightToes  0.00048216 0.542163 -0.142577
Spine  9.55807 -0.255565 -2.53555
Spine1  4.59282 -0.417662 -1.71574
HEad  10.9213 2.2395 -3.60665
LeftShoulder1  2.40487 -5.03813 -21.7251
LeftArm  -22.6044 15.6502 -19.2051
LeftForeArm  1.88139 -3.9265 -0.332549
LeftHand  -0.25398 0.0180481 5.50724
RightShoulder  2.1771 4.37748 21.2986
RightArm  -19.8722 -4.47798 17.9489
RightForeArm  2.31403 22.1574 4.68632
RightHand  -2.36024 6.97539 -22.2988
LeftUpLeg  4.70004 9.13374 0.0981536
LeftLeg  15.2306 14.4809 -0.499238
LeftFoot  -16.2355 -0.0732361 -3.98699
LeftToes  1.06243e-005 4.65856e-005 -8.18503e-006
25
root  2.02164 39.9201 -2.71442 -178.101 -70.2299 171.032
RightUpLeg  -18.666 -8.63427 -8.48114
RightLeg  37.7676 4.17796 3.2156
RightFoot  2.18613 -1.29153 10.9821
RightToes  0.00048216 0.542163 -0.142577
Spine  9.7617 -0.644019 -2.72069
Spine1  5.23471 -0.872106 -1.47118
HEad  11.0765 3.22073 -3.88526
LeftShoulder1  3.03936 -6.14836 -25.2438
LeftArm  -21.5624 13.9248 -20.9165
LeftForeArm  3.07742 -3.02748 -0.830309
LeftHand  -0.25398 0.0180481 5.50724
RightShoulder  2.52855 5.04648 23.3691
RightArm  -16.2489 -5.74923 21.011
RightForeArm  3.10999 20.78 4.5801
RightHand  -2.29165 6.89829 -21.8076
LeftUpLeg  5.14518 9.09714 0.187526
LeftLeg  15.1576 14.9961 -0.575941
LeftFoot  -16.8805 -0.126996 -4.71286
LeftToes  1.06243e-005 4.65856e-005 -8.18503e-006
26
root  1.72738 39.9169 -2.84433 -178.332 -69.8684 171.544
RightUpLeg  -19.7636 -10.5688 -8.00543
RightLeg  33.3791 3.06437 1.94594
RightFoot  1.6925 -1.1821 10.4232
RightToes  0.00048216 0.542163 -0.142577
Spine  10.0504 -1.05581 -2.92369
Spine1  5.61616 -1.38773 -1.00871
HEad  11.2804 3.92542 -4.13151
LeftShoulder1  3.82281 -7.47842 -28.7068
LeftArm  -20.3543 11.6336 -22.6834
LeftForeArm  4.97645 -2.29965 -1.43722
LeftHand  -0.25398 0.0180481 5.50724
RightShoulder  2.87572 5.63057 25.3798
RightArm  -13.6435 -7.3049 24.3877
RightForeArm  5.39351 17.9311 4.60441
RightHand  -2.18388 6.73474 -21.0876
LeftUpLeg  5.62911 8.95701 0.452073
LeftLeg  14.833 15.183 -0.730636
LeftFoot  -17.3136 -0.181572 -5.46837
LeftToes  1.06243e-005 4.65856e-005 -8.18503e-006
27
root  1.39556 39.8806 -3.03869 -178.316 -69.6734 171.594
RightUpLeg  -19.9345 -12.2713 -7.68414
RightLeg  26.9847 1.95989 0.855423
RightFoot  1.23833 -1.11514 10.1693
RightToes  0.00048216 0.542163 -0.142577
Spine  10.8617 -1.40935 -3.46719
Spine1  5.7085 -1.93294 -0.388832
HEad  11.1838 4.50793 -4.40899
LeftShoulder1  4.52336 -8.56945 -31.4189
LeftArm  -19.5213 8.90763 -25.3449
LeftForeArm  8.36634 -2.25813 -1.967
LeftHand  -0.25398 0.0180481 5.50724
RightShoulder  3.1636 6.08608 26.9473
RightArm  -12.9711 -9.4448 28.4632
RightForeArm  9.24044 14.6249 4.80602
RightHand  -1.98377 6.23854 -20.0032
LeftUpLeg  6.27484 8.83888 0.631072
LeftLeg  14.7259 15.3694 -0.756363
LeftFoot  -17.6866 -0.204114 -5.59441
LeftToes  1.06243e-005 4.65856e-005 -8.18503e-006
28
root  1.01403 39.8058 -3.29133 -177.536 -69.6249 170.742
RightUpLeg  -19.6111 -14.1123 -7.64447
RightLeg  19.972 2.12987 0.608418
RightFoot  1.0238 -1.06472 9.87055
RightToes  0.00048216 0.542163 -0.142577
Spine  11.9266 -1.72609 -4.34969
Spine1  5.7821 -2.51325 0.322551
HEad  10.6061 5.07344 -4.67804
LeftShoulder1  5.01579 -9.25615 -33.26
LeftArm  -18.6892 5.62262 -28.8917
LeftForeArm  12.983 -2.85017 -2.50811
LeftHand  -0.25398 0.0180481 5.50724
RightShoulder  3.38813 6.45552 28.0109
RightArm  -13.6227 -12.5208 33.2216
RightForeArm  13.2229 12.3044 4.79819
RightHand  -1.75003 5.57214 -18.7583
LeftUpLeg  6.98957 8.77043 0.538449
LeftLeg  14.8034 15.3628 -0.708832
LeftFoot  -18.085 -0.205396 -5.32191
LeftToes  1.06243e-005 4.65856e-005 -8.18503e-006
